<?xml version="1.0" encoding="utf-8"?>
<!-- Svg Vector Icons : http://www.onlinewebfonts.com/icon -->
<!DOCTYPE svg PUBLIC "-//W3C//DTD SVG 1.1//EN" "http://www.w3.org/Graphics/SVG/1.1/DTD/svg11.dtd">
<svg version="1.1" xmlns="http://www.w3.org/2000/svg" xmlns:xlink="http://www.w3.org/1999/xlink" x="0px" y="0px" viewBox="0 0 1000 1000" enable-background="new 0 0 1000 1000" xml:space="preserve">
<metadata> Svg Vector Icons : http://www.onlinewebfonts.com/icon </metadata>
<g><path d="M485.9,329.7c25.7,0,42.8-17.2,42.8-42.8c0-25.7-17.1-42.7-42.8-42.7c-25.6,0-51.4,17-51.4,42.7C434.6,312.5,460.3,329.7,485.9,329.7z"/><path d="M246.6,244.2c-25.6,0-51.5,17-51.5,42.7c0,25.6,25.8,42.8,51.5,42.8c25.6,0,42.7-17.2,42.7-42.8C289.3,261.2,272.2,244.2,246.6,244.2z"/><path d="M962.6,547.6c-17.1-33.3-41.3-63.3-72-89.1c-30-25.3-64.5-45.1-102.6-59c-6.9-2.5-13.9-4.8-20.9-6.9c9-45.3-2.3-92.4-4.7-101.7c-16.2-74.5-63.8-142.4-133.9-191.2c-68.9-47.9-155.3-74.3-243.4-74.3c-99.1,0-192.5,32.7-262.9,92.2C49.9,178.6,10,260.9,10,349.2C10,401,23.9,450,51.2,494.7c21.6,35.4,51.8,68.2,89.7,97.7l-26.6,80c-4.2,12.7-0.4,26.8,9.8,35.6c6.2,5.3,13.9,8.1,21.7,8.1c5.1,0,10.2-1.2,14.9-3.5l109.1-54.7c8,1.8,14.9,3.6,21.7,5.4c16.1,4.2,30.4,7.9,51.3,9.4c1.8,33.9,10.4,66.7,25.6,97.7c16.5,33.7,40.1,63.7,70,89.4c60.7,52,141.7,80.7,228,80.7c33.6,0,66.3-7.2,98-15l82.4,45.1c5,2.7,10.5,4.1,15.9,4.1c7.4,0,14.8-2.5,20.9-7.4c10.5-8.5,14.8-22.4,10.9-35.3l-19.2-63.9c31.1-25.8,56.3-53.6,75.2-82.9c26.2-40.6,39.4-83,39.4-126C990,620.6,980.8,583.1,962.6,547.6z M271.7,590.4c-7.2-1.4-14.7-0.4-21.3,2.9l-47.9,24l8.9-26.8c4.6-13.9-0.4-29.3-12.5-37.7C117.6,496,76.4,427.5,76.4,349.2c0-142,138.5-257.6,308.7-257.6c152,0,286.4,92,312.5,213.9c0.1,0.6,0.3,1.2,0.4,1.8c3.2,11.9,9.3,45.8,4,72.4c-11.8-1.2-23.7-1.8-35.6-1.8c-86.3,0-167.3,28.7-228,80.8c-30,25.7-53.5,55.8-70,89.5c-9.2,18.8-16,38.3-20.3,58.3c-15-1-25.2-3.7-39.8-7.5C298.2,596.4,286.8,593.4,271.7,590.4z M817.1,829.5c-11.1,8.4-15.9,22.8-11.9,36.1l2.4,7.9l-22.8-12.5c-7.3-4-16-5.1-24.1-3.1c-33.2,8.3-64.5,16.1-94.4,16.1c-142.1,0-257.7-96.4-257.7-214.9c0-118.5,115.6-215,257.7-215c66.2,0,132.4,23.7,181.5,65c48.9,41.1,75.8,94.4,75.8,150C923.6,737.8,856.9,799.7,817.1,829.5z"/><path d="M572.1,548c-17,0-34.2,17.1-34.2,34.2c0,17.3,17.2,34.2,34.2,34.2c25.8,0,42.8-17,42.8-34.2C614.9,565.1,597.9,548,572.1,548z"/><path d="M760.2,548c-16.9,0-34,17.1-34,34.2c0,17.3,17,34.2,34,34.2c25.6,0,42.8-17,42.8-34.2C803,565.1,785.8,548,760.2,548z"/></g>
</svg>